<mxfile host="app.diagrams.net" agent="Mozilla/5.0 (Macintosh; Intel Mac OS X 10.15; rv:131.0) Gecko/20100101 Firefox/131.0" version="24.7.17" pages="2">
  <diagram name="Page-1" id="yUWiJsb1odWKn49dKLG9">
    <mxGraphModel dx="905" dy="597" grid="1" gridSize="10" guides="1" tooltips="1" connect="1" arrows="1" fold="1" page="1" pageScale="1" pageWidth="1100" pageHeight="850" math="0" shadow="0">
      <root>
        <mxCell id="0" />
        <mxCell id="1" parent="0" />
        <mxCell id="c58yYooRlup-3saje_W5-4" value="" style="group" parent="1" vertex="1" connectable="0">
          <mxGeometry x="460" y="240" width="130" height="130" as="geometry" />
        </mxCell>
        <mxCell id="c58yYooRlup-3saje_W5-1" value="&lt;br&gt;&lt;br&gt;&lt;br&gt;&lt;br&gt;&lt;br&gt;&lt;br&gt;&lt;br&gt;&lt;br&gt;&lt;br&gt;&lt;br&gt;&lt;br&gt;&lt;br&gt;&lt;br&gt;&lt;br&gt;&lt;br&gt;&lt;br&gt;&lt;br&gt;&lt;br&gt;&lt;p style=&quot;text-align:center&quot; align=&quot;center&quot; class=&quot;MsoNormal&quot;&gt;&lt;span style=&quot;mso-bidi-font-weight:&lt;br/&gt;normal&quot;&gt;&lt;font size=&quot;1&quot;&gt;&lt;span style=&quot;line-height: 115%; font-size: 12px;&quot; lang=&quot;EN&quot;&gt;&lt;br&gt;&lt;/span&gt;&lt;/font&gt;&lt;/span&gt;&lt;/p&gt;&lt;br&gt;&lt;br&gt;&lt;br&gt;&lt;br&gt;&lt;div&gt;&lt;br/&gt;&lt;/div&gt;" style="ellipse;whiteSpace=wrap;html=1;aspect=fixed;" parent="c58yYooRlup-3saje_W5-4" vertex="1">
          <mxGeometry width="130" height="130" as="geometry" />
        </mxCell>
        <mxCell id="c58yYooRlup-3saje_W5-2" value="&lt;span style=&quot;mso-bidi-font-weight:&lt;br/&gt;normal&quot;&gt;&lt;font size=&quot;1&quot;&gt;&lt;span style=&quot;line-height: 115%; font-size: 12px;&quot; lang=&quot;EN&quot;&gt;Virtual Event&lt;br&gt;Management System&lt;/span&gt;&lt;/font&gt;&lt;/span&gt;" style="text;html=1;align=center;verticalAlign=middle;whiteSpace=wrap;rounded=0;" parent="c58yYooRlup-3saje_W5-4" vertex="1">
          <mxGeometry x="35" y="50" width="60" height="30" as="geometry" />
        </mxCell>
        <mxCell id="78bFOjxCsefDvUHkpxz3-5" value="" style="endArrow=classic;html=1;rounded=0;entryX=0;entryY=1;entryDx=0;entryDy=0;" parent="c58yYooRlup-3saje_W5-4" target="c58yYooRlup-3saje_W5-1" edge="1">
          <mxGeometry width="50" height="50" relative="1" as="geometry">
            <mxPoint x="-30" y="110.02999999999997" as="sourcePoint" />
            <mxPoint x="9.230000000000018" y="110" as="targetPoint" />
          </mxGeometry>
        </mxCell>
        <mxCell id="J6RAhFslYg77qdTQGYrJ-154" value="" style="endArrow=none;html=1;rounded=0;" edge="1" parent="c58yYooRlup-3saje_W5-4">
          <mxGeometry width="50" height="50" relative="1" as="geometry">
            <mxPoint x="100" y="140" as="sourcePoint" />
            <mxPoint x="130" y="140" as="targetPoint" />
          </mxGeometry>
        </mxCell>
        <mxCell id="J6RAhFslYg77qdTQGYrJ-155" value="" style="endArrow=classic;html=1;rounded=0;entryX=0.772;entryY=0.926;entryDx=0;entryDy=0;entryPerimeter=0;" edge="1" parent="c58yYooRlup-3saje_W5-4" target="c58yYooRlup-3saje_W5-1">
          <mxGeometry width="50" height="50" relative="1" as="geometry">
            <mxPoint x="100" y="140" as="sourcePoint" />
            <mxPoint x="150" y="90" as="targetPoint" />
          </mxGeometry>
        </mxCell>
        <mxCell id="J6RAhFslYg77qdTQGYrJ-157" value="" style="endArrow=none;html=1;rounded=0;exitX=0.813;exitY=0.887;exitDx=0;exitDy=0;exitPerimeter=0;" edge="1" parent="c58yYooRlup-3saje_W5-4" source="c58yYooRlup-3saje_W5-1">
          <mxGeometry width="50" height="50" relative="1" as="geometry">
            <mxPoint x="120" y="114.87999999999994" as="sourcePoint" />
            <mxPoint x="150" y="115" as="targetPoint" />
          </mxGeometry>
        </mxCell>
        <mxCell id="c58yYooRlup-3saje_W5-8" value="" style="group" parent="1" vertex="1" connectable="0">
          <mxGeometry x="200" y="310" width="80" height="30" as="geometry" />
        </mxCell>
        <mxCell id="c58yYooRlup-3saje_W5-3" value="" style="rounded=0;whiteSpace=wrap;html=1;" parent="c58yYooRlup-3saje_W5-8" vertex="1">
          <mxGeometry width="80" height="27.5" as="geometry" />
        </mxCell>
        <mxCell id="c58yYooRlup-3saje_W5-7" value="&lt;div&gt;Organizer&lt;/div&gt;" style="text;html=1;align=center;verticalAlign=middle;whiteSpace=wrap;rounded=0;" parent="c58yYooRlup-3saje_W5-8" vertex="1">
          <mxGeometry x="10" y="-2.5" width="60" height="30" as="geometry" />
        </mxCell>
        <mxCell id="c58yYooRlup-3saje_W5-9" value="" style="group" parent="1" vertex="1" connectable="0">
          <mxGeometry x="480" y="140" width="80" height="30" as="geometry" />
        </mxCell>
        <mxCell id="c58yYooRlup-3saje_W5-10" value="" style="rounded=0;whiteSpace=wrap;html=1;" parent="c58yYooRlup-3saje_W5-9" vertex="1">
          <mxGeometry width="80" height="27.5" as="geometry" />
        </mxCell>
        <mxCell id="c58yYooRlup-3saje_W5-11" value="&lt;div&gt;Admin&lt;/div&gt;" style="text;html=1;align=center;verticalAlign=middle;whiteSpace=wrap;rounded=0;" parent="c58yYooRlup-3saje_W5-9" vertex="1">
          <mxGeometry x="10" width="60" height="30" as="geometry" />
        </mxCell>
        <mxCell id="c58yYooRlup-3saje_W5-12" value="" style="group" parent="1" vertex="1" connectable="0">
          <mxGeometry x="485" y="500" width="80" height="30" as="geometry" />
        </mxCell>
        <mxCell id="c58yYooRlup-3saje_W5-13" value="" style="rounded=0;whiteSpace=wrap;html=1;" parent="c58yYooRlup-3saje_W5-12" vertex="1">
          <mxGeometry width="80" height="27.5" as="geometry" />
        </mxCell>
        <mxCell id="c58yYooRlup-3saje_W5-14" value="&lt;div&gt;Participant&lt;/div&gt;" style="text;html=1;align=center;verticalAlign=middle;whiteSpace=wrap;rounded=0;" parent="c58yYooRlup-3saje_W5-12" vertex="1">
          <mxGeometry x="10" width="60" height="30" as="geometry" />
        </mxCell>
        <mxCell id="c58yYooRlup-3saje_W5-18" value="&lt;font style=&quot;font-size: 10px;&quot;&gt;Profile created/updated confirmation&lt;/font&gt;" style="text;html=1;align=center;verticalAlign=middle;whiteSpace=wrap;rounded=0;direction=west;flipV=1;flipH=1;" parent="1" vertex="1">
          <mxGeometry x="520" y="425" width="60" height="22.5" as="geometry" />
        </mxCell>
        <mxCell id="c58yYooRlup-3saje_W5-19" value="&lt;div&gt;User Details&lt;/div&gt;" style="text;html=1;align=center;verticalAlign=middle;whiteSpace=wrap;rounded=0;" parent="1" vertex="1">
          <mxGeometry x="460" y="425" width="60" height="30" as="geometry" />
        </mxCell>
        <mxCell id="c58yYooRlup-3saje_W5-20" value="" style="endArrow=classic;html=1;rounded=0;exitX=0.5;exitY=0;exitDx=0;exitDy=0;" parent="1" edge="1">
          <mxGeometry width="50" height="50" relative="1" as="geometry">
            <mxPoint x="510" y="500" as="sourcePoint" />
            <mxPoint x="510" y="370" as="targetPoint" />
          </mxGeometry>
        </mxCell>
        <mxCell id="c58yYooRlup-3saje_W5-22" value="" style="endArrow=classic;html=1;rounded=0;entryX=0.048;entryY=0.681;entryDx=0;entryDy=0;entryPerimeter=0;" parent="1" edge="1" target="c58yYooRlup-3saje_W5-1">
          <mxGeometry width="50" height="50" relative="1" as="geometry">
            <mxPoint x="280" y="327.5" as="sourcePoint" />
            <mxPoint x="460" y="327.5" as="targetPoint" />
          </mxGeometry>
        </mxCell>
        <mxCell id="c58yYooRlup-3saje_W5-24" value="&lt;font style=&quot;font-size: 10px;&quot;&gt;Event Details&lt;/font&gt;" style="text;html=1;align=center;verticalAlign=middle;whiteSpace=wrap;rounded=0;" parent="1" vertex="1">
          <mxGeometry x="370" y="310" width="90" height="22.5" as="geometry" />
        </mxCell>
        <mxCell id="c58yYooRlup-3saje_W5-25" value="" style="endArrow=classic;html=1;rounded=0;exitX=0.056;exitY=0.733;exitDx=0;exitDy=0;exitPerimeter=0;entryX=1.005;entryY=0.854;entryDx=0;entryDy=0;entryPerimeter=0;" parent="1" source="c58yYooRlup-3saje_W5-1" edge="1" target="c58yYooRlup-3saje_W5-3">
          <mxGeometry width="50" height="50" relative="1" as="geometry">
            <mxPoint x="465.72" y="329.15" as="sourcePoint" />
            <mxPoint x="280" y="327.5" as="targetPoint" />
          </mxGeometry>
        </mxCell>
        <mxCell id="c58yYooRlup-3saje_W5-26" value="Event Confirmation" style="text;html=1;align=center;verticalAlign=middle;whiteSpace=wrap;rounded=0;" parent="1" vertex="1">
          <mxGeometry x="290" y="340" width="90" height="30" as="geometry" />
        </mxCell>
        <mxCell id="c58yYooRlup-3saje_W5-27" value="" style="endArrow=classic;html=1;rounded=0;exitX=0.5;exitY=1;exitDx=0;exitDy=0;entryX=0.5;entryY=0;entryDx=0;entryDy=0;" parent="1" source="c58yYooRlup-3saje_W5-1" target="c58yYooRlup-3saje_W5-14" edge="1">
          <mxGeometry width="50" height="50" relative="1" as="geometry">
            <mxPoint x="530" y="440" as="sourcePoint" />
            <mxPoint x="580" y="390" as="targetPoint" />
          </mxGeometry>
        </mxCell>
        <mxCell id="c58yYooRlup-3saje_W5-32" value="" style="endArrow=none;html=1;rounded=0;" parent="1" edge="1">
          <mxGeometry width="50" height="50" relative="1" as="geometry">
            <mxPoint x="565" y="510" as="sourcePoint" />
            <mxPoint x="710" y="510" as="targetPoint" />
          </mxGeometry>
        </mxCell>
        <mxCell id="c58yYooRlup-3saje_W5-33" value="" style="endArrow=none;html=1;rounded=0;" parent="1" edge="1">
          <mxGeometry width="50" height="50" relative="1" as="geometry">
            <mxPoint x="710" y="510" as="sourcePoint" />
            <mxPoint x="710" y="340" as="targetPoint" />
          </mxGeometry>
        </mxCell>
        <mxCell id="c58yYooRlup-3saje_W5-34" value="" style="endArrow=classic;html=1;rounded=0;entryX=0.926;entryY=0.767;entryDx=0;entryDy=0;entryPerimeter=0;" parent="1" target="c58yYooRlup-3saje_W5-1" edge="1">
          <mxGeometry width="50" height="50" relative="1" as="geometry">
            <mxPoint x="710" y="340" as="sourcePoint" />
            <mxPoint x="760" y="290" as="targetPoint" />
          </mxGeometry>
        </mxCell>
        <mxCell id="c58yYooRlup-3saje_W5-35" value="Event Registration Details" style="text;html=1;align=center;verticalAlign=middle;whiteSpace=wrap;rounded=0;" parent="1" vertex="1">
          <mxGeometry x="630" y="360" width="60" height="30" as="geometry" />
        </mxCell>
        <mxCell id="c58yYooRlup-3saje_W5-40" value="" style="group" parent="1" vertex="1" connectable="0">
          <mxGeometry x="750" y="320" height="200" as="geometry" />
        </mxCell>
        <mxCell id="c58yYooRlup-3saje_W5-37" value="" style="endArrow=none;html=1;rounded=0;exitX=0.982;exitY=0.62;exitDx=0;exitDy=0;exitPerimeter=0;" parent="c58yYooRlup-3saje_W5-40" source="c58yYooRlup-3saje_W5-1" edge="1">
          <mxGeometry width="50" height="50" relative="1" as="geometry">
            <mxPoint x="-160" as="sourcePoint" />
            <mxPoint as="targetPoint" />
          </mxGeometry>
        </mxCell>
        <mxCell id="c58yYooRlup-3saje_W5-38" value="" style="endArrow=none;html=1;rounded=0;" parent="c58yYooRlup-3saje_W5-40" edge="1">
          <mxGeometry width="50" height="50" relative="1" as="geometry">
            <mxPoint as="sourcePoint" />
            <mxPoint y="200" as="targetPoint" />
          </mxGeometry>
        </mxCell>
        <mxCell id="c58yYooRlup-3saje_W5-39" value="" style="endArrow=classic;html=1;rounded=0;entryX=1;entryY=0.75;entryDx=0;entryDy=0;" parent="c58yYooRlup-3saje_W5-40" target="c58yYooRlup-3saje_W5-13" edge="1">
          <mxGeometry width="50" height="50" relative="1" as="geometry">
            <mxPoint y="200" as="sourcePoint" />
            <mxPoint x="50" y="150" as="targetPoint" />
          </mxGeometry>
        </mxCell>
        <mxCell id="c58yYooRlup-3saje_W5-41" value="&lt;div&gt;Registration Confirmation&lt;/div&gt;&lt;div&gt;&lt;br&gt;&lt;/div&gt;" style="text;html=1;align=center;verticalAlign=middle;whiteSpace=wrap;rounded=0;" parent="1" vertex="1">
          <mxGeometry x="630" y="530" width="60" height="30" as="geometry" />
        </mxCell>
        <mxCell id="c58yYooRlup-3saje_W5-43" value="" style="endArrow=none;html=1;rounded=0;exitX=0.982;exitY=0.62;exitDx=0;exitDy=0;exitPerimeter=0;" parent="1" edge="1">
          <mxGeometry width="50" height="50" relative="1" as="geometry">
            <mxPoint x="590" y="310" as="sourcePoint" />
            <mxPoint x="790" y="309.5" as="targetPoint" />
          </mxGeometry>
        </mxCell>
        <mxCell id="c58yYooRlup-3saje_W5-44" value="" style="endArrow=none;html=1;rounded=0;" parent="1" edge="1">
          <mxGeometry width="50" height="50" relative="1" as="geometry">
            <mxPoint x="790" y="600" as="sourcePoint" />
            <mxPoint x="790" y="310" as="targetPoint" />
          </mxGeometry>
        </mxCell>
        <mxCell id="c58yYooRlup-3saje_W5-45" value="" style="endArrow=none;html=1;rounded=0;" parent="1" edge="1">
          <mxGeometry width="50" height="50" relative="1" as="geometry">
            <mxPoint x="560" y="600" as="sourcePoint" />
            <mxPoint x="790" y="600" as="targetPoint" />
          </mxGeometry>
        </mxCell>
        <mxCell id="c58yYooRlup-3saje_W5-47" value="" style="endArrow=classic;html=1;rounded=0;" parent="1" edge="1">
          <mxGeometry width="50" height="50" relative="1" as="geometry">
            <mxPoint x="560" y="600" as="sourcePoint" />
            <mxPoint x="560" y="528" as="targetPoint" />
          </mxGeometry>
        </mxCell>
        <mxCell id="c58yYooRlup-3saje_W5-51" value="event participation details" style="text;html=1;align=center;verticalAlign=middle;whiteSpace=wrap;rounded=0;" parent="1" vertex="1">
          <mxGeometry x="610" y="600" width="140" height="30" as="geometry" />
        </mxCell>
        <mxCell id="c58yYooRlup-3saje_W5-53" value="&lt;font style=&quot;font-size: 10px;&quot;&gt;&lt;span lang=&quot;EN&quot; style=&quot;line-height: 115%;&quot;&gt;Reporting parameters &lt;/span&gt;&lt;/font&gt;" style="text;whiteSpace=wrap;html=1;" parent="1" vertex="1">
          <mxGeometry x="415" y="190" width="110" height="30" as="geometry" />
        </mxCell>
        <mxCell id="c58yYooRlup-3saje_W5-56" value="&lt;font style=&quot;font-size: 10px;&quot;&gt;&lt;span lang=&quot;EN&quot; style=&quot;line-height: 115%;&quot;&gt;feedback summaries&lt;/span&gt;&lt;/font&gt;" style="text;whiteSpace=wrap;html=1;" parent="1" vertex="1">
          <mxGeometry x="550" y="180" width="70" height="50" as="geometry" />
        </mxCell>
        <mxCell id="c58yYooRlup-3saje_W5-59" value="" style="endArrow=classic;html=1;rounded=0;exitX=0.531;exitY=0.932;exitDx=0;exitDy=0;exitPerimeter=0;" parent="1" source="c58yYooRlup-3saje_W5-11" edge="1">
          <mxGeometry width="50" height="50" relative="1" as="geometry">
            <mxPoint x="560" y="200" as="sourcePoint" />
            <mxPoint x="521" y="240" as="targetPoint" />
          </mxGeometry>
        </mxCell>
        <mxCell id="c58yYooRlup-3saje_W5-61" value="" style="endArrow=classic;html=1;rounded=0;entryX=0.84;entryY=0.918;entryDx=0;entryDy=0;entryPerimeter=0;exitX=0.62;exitY=0.014;exitDx=0;exitDy=0;exitPerimeter=0;" parent="1" source="c58yYooRlup-3saje_W5-1" target="c58yYooRlup-3saje_W5-11" edge="1">
          <mxGeometry width="50" height="50" relative="1" as="geometry">
            <mxPoint x="540" y="240" as="sourcePoint" />
            <mxPoint x="540" y="170" as="targetPoint" />
          </mxGeometry>
        </mxCell>
        <mxCell id="c58yYooRlup-3saje_W5-67" value="&lt;font style=&quot;font-size: 10px;&quot;&gt;&lt;span lang=&quot;EN&quot; style=&quot;line-height: 115%;&quot;&gt;Event participation&lt;br&gt;statistics&lt;/span&gt;&lt;/font&gt;" style="text;whiteSpace=wrap;html=1;" parent="1" vertex="1">
          <mxGeometry x="675" y="175" width="85" height="35" as="geometry" />
        </mxCell>
        <mxCell id="JJB0s_iBs2IypwbjsGVL-1" value="" style="group" parent="1" connectable="0" vertex="1">
          <mxGeometry x="670" y="160" height="120" as="geometry" />
        </mxCell>
        <mxCell id="c58yYooRlup-3saje_W5-65" value="" style="endArrow=none;html=1;rounded=0;" parent="JJB0s_iBs2IypwbjsGVL-1" edge="1">
          <mxGeometry width="50" height="50" relative="1" as="geometry">
            <mxPoint y="120" as="sourcePoint" />
            <mxPoint as="targetPoint" />
          </mxGeometry>
        </mxCell>
        <mxCell id="5Npem4B_wxZrPuZL4UlF-2" value="" style="endArrow=none;html=1;rounded=0;exitX=0.957;exitY=0.306;exitDx=0;exitDy=0;exitPerimeter=0;" parent="JJB0s_iBs2IypwbjsGVL-1" source="c58yYooRlup-3saje_W5-1" edge="1">
          <mxGeometry width="50" height="50" relative="1" as="geometry">
            <mxPoint x="-60" y="140" as="sourcePoint" />
            <mxPoint y="120" as="targetPoint" />
          </mxGeometry>
        </mxCell>
        <mxCell id="5Npem4B_wxZrPuZL4UlF-3" value="" style="endArrow=classic;html=1;rounded=0;entryX=1;entryY=0.75;entryDx=0;entryDy=0;" parent="JJB0s_iBs2IypwbjsGVL-1" target="c58yYooRlup-3saje_W5-10" edge="1">
          <mxGeometry width="50" height="50" relative="1" as="geometry">
            <mxPoint as="sourcePoint" />
            <mxPoint x="50" y="-50" as="targetPoint" />
          </mxGeometry>
        </mxCell>
        <mxCell id="iX_OGlHxTPo9EbYRn8sV-2" value="&lt;div style=&quot;font-size: 10px;&quot;&gt;Request for event lists&lt;/div&gt;&lt;div&gt;&lt;br&gt;&lt;/div&gt;" style="text;html=1;align=center;verticalAlign=middle;whiteSpace=wrap;rounded=0;" parent="1" vertex="1">
          <mxGeometry x="230" y="252.5" width="140" height="45" as="geometry" />
        </mxCell>
        <mxCell id="iX_OGlHxTPo9EbYRn8sV-3" value="" style="endArrow=none;html=1;rounded=0;" parent="1" edge="1">
          <mxGeometry width="50" height="50" relative="1" as="geometry">
            <mxPoint x="230" y="310" as="sourcePoint" />
            <mxPoint x="230" y="260" as="targetPoint" />
          </mxGeometry>
        </mxCell>
        <mxCell id="iX_OGlHxTPo9EbYRn8sV-4" value="" style="endArrow=classic;html=1;rounded=0;" parent="1" edge="1">
          <mxGeometry width="50" height="50" relative="1" as="geometry">
            <mxPoint x="230" y="260" as="sourcePoint" />
            <mxPoint x="480" y="260" as="targetPoint" />
          </mxGeometry>
        </mxCell>
        <mxCell id="iX_OGlHxTPo9EbYRn8sV-7" value="" style="endArrow=none;html=1;rounded=0;" parent="1" edge="1">
          <mxGeometry width="50" height="50" relative="1" as="geometry">
            <mxPoint x="210" y="250" as="sourcePoint" />
            <mxPoint x="490" y="250" as="targetPoint" />
          </mxGeometry>
        </mxCell>
        <mxCell id="iX_OGlHxTPo9EbYRn8sV-8" value="" style="endArrow=classic;html=1;rounded=0;entryX=0.125;entryY=-0.015;entryDx=0;entryDy=0;entryPerimeter=0;" parent="1" target="c58yYooRlup-3saje_W5-3" edge="1">
          <mxGeometry width="50" height="50" relative="1" as="geometry">
            <mxPoint x="210" y="250" as="sourcePoint" />
            <mxPoint x="260" y="200" as="targetPoint" />
          </mxGeometry>
        </mxCell>
        <mxCell id="EmX9LABOGlH5GblBXsLG-1" value="Event List" style="text;html=1;align=center;verticalAlign=middle;whiteSpace=wrap;rounded=0;" parent="1" vertex="1">
          <mxGeometry x="130" y="260" width="90" height="30" as="geometry" />
        </mxCell>
        <mxCell id="78bFOjxCsefDvUHkpxz3-1" value="" style="endArrow=none;html=1;rounded=0;entryX=0;entryY=0.75;entryDx=0;entryDy=0;" parent="1" edge="1">
          <mxGeometry width="50" height="50" relative="1" as="geometry">
            <mxPoint x="430" y="510" as="sourcePoint" />
            <mxPoint x="485" y="510.625" as="targetPoint" />
            <Array as="points">
              <mxPoint x="460" y="510" />
            </Array>
          </mxGeometry>
        </mxCell>
        <mxCell id="78bFOjxCsefDvUHkpxz3-4" value="" style="endArrow=none;html=1;rounded=0;" parent="1" edge="1">
          <mxGeometry width="50" height="50" relative="1" as="geometry">
            <mxPoint x="430" y="510" as="sourcePoint" />
            <mxPoint x="430" y="350" as="targetPoint" />
          </mxGeometry>
        </mxCell>
        <mxCell id="78bFOjxCsefDvUHkpxz3-6" value="&lt;div style=&quot;font-size: 10px;&quot;&gt;&lt;font style=&quot;font-size: 10px;&quot;&gt;Request for event lists&lt;/font&gt;&lt;/div&gt;&lt;div style=&quot;font-size: 10px;&quot;&gt;&lt;font style=&quot;font-size: 10px;&quot;&gt;&lt;br&gt;&lt;/font&gt;&lt;/div&gt;" style="text;html=1;align=center;verticalAlign=middle;whiteSpace=wrap;rounded=0;" parent="1" vertex="1">
          <mxGeometry x="420" y="360" width="80" height="55" as="geometry" />
        </mxCell>
        <mxCell id="78bFOjxCsefDvUHkpxz3-9" value="" style="endArrow=classic;html=1;rounded=0;entryX=0;entryY=0.75;entryDx=0;entryDy=0;" parent="1" edge="1">
          <mxGeometry width="50" height="50" relative="1" as="geometry">
            <mxPoint x="420" y="520" as="sourcePoint" />
            <mxPoint x="485" y="519.625" as="targetPoint" />
          </mxGeometry>
        </mxCell>
        <mxCell id="78bFOjxCsefDvUHkpxz3-10" value="" style="endArrow=none;html=1;rounded=0;" parent="1" edge="1">
          <mxGeometry width="50" height="50" relative="1" as="geometry">
            <mxPoint x="420" y="520" as="sourcePoint" />
            <mxPoint x="420" y="340" as="targetPoint" />
          </mxGeometry>
        </mxCell>
        <mxCell id="78bFOjxCsefDvUHkpxz3-12" value="" style="endArrow=none;html=1;rounded=0;entryX=0.083;entryY=0.774;entryDx=0;entryDy=0;entryPerimeter=0;" parent="1" target="c58yYooRlup-3saje_W5-1" edge="1">
          <mxGeometry width="50" height="50" relative="1" as="geometry">
            <mxPoint x="420" y="340" as="sourcePoint" />
            <mxPoint x="470" y="310" as="targetPoint" />
          </mxGeometry>
        </mxCell>
        <mxCell id="78bFOjxCsefDvUHkpxz3-13" value="Event List" style="text;html=1;align=center;verticalAlign=middle;whiteSpace=wrap;rounded=0;" parent="1" vertex="1">
          <mxGeometry x="340" y="410" width="90" height="30" as="geometry" />
        </mxCell>
        <mxCell id="J6RAhFslYg77qdTQGYrJ-1" value="" style="endArrow=none;html=1;rounded=0;" edge="1" parent="1">
          <mxGeometry width="50" height="50" relative="1" as="geometry">
            <mxPoint x="560" y="150" as="sourcePoint" />
            <mxPoint x="800" y="150" as="targetPoint" />
          </mxGeometry>
        </mxCell>
        <mxCell id="J6RAhFslYg77qdTQGYrJ-2" value="" style="endArrow=none;html=1;rounded=0;" edge="1" parent="1">
          <mxGeometry width="50" height="50" relative="1" as="geometry">
            <mxPoint x="800" y="290" as="sourcePoint" />
            <mxPoint x="800" y="150" as="targetPoint" />
          </mxGeometry>
        </mxCell>
        <mxCell id="J6RAhFslYg77qdTQGYrJ-3" value="" style="endArrow=classic;html=1;rounded=0;entryX=0.985;entryY=0.386;entryDx=0;entryDy=0;entryPerimeter=0;" edge="1" parent="1" target="c58yYooRlup-3saje_W5-1">
          <mxGeometry width="50" height="50" relative="1" as="geometry">
            <mxPoint x="800" y="290" as="sourcePoint" />
            <mxPoint x="770" y="260" as="targetPoint" />
          </mxGeometry>
        </mxCell>
        <mxCell id="J6RAhFslYg77qdTQGYrJ-134" value="credentials" style="text;html=1;align=center;verticalAlign=middle;whiteSpace=wrap;rounded=0;" vertex="1" parent="1">
          <mxGeometry x="720" y="260" width="60" height="30" as="geometry" />
        </mxCell>
        <mxCell id="J6RAhFslYg77qdTQGYrJ-135" value="" style="endArrow=none;html=1;rounded=0;" edge="1" parent="1">
          <mxGeometry width="50" height="50" relative="1" as="geometry">
            <mxPoint x="590" y="300" as="sourcePoint" />
            <mxPoint x="810" y="300" as="targetPoint" />
          </mxGeometry>
        </mxCell>
        <mxCell id="J6RAhFslYg77qdTQGYrJ-136" value="" style="endArrow=none;html=1;rounded=0;" edge="1" parent="1">
          <mxGeometry width="50" height="50" relative="1" as="geometry">
            <mxPoint x="810" y="300" as="sourcePoint" />
            <mxPoint x="810" y="140" as="targetPoint" />
          </mxGeometry>
        </mxCell>
        <mxCell id="J6RAhFslYg77qdTQGYrJ-137" value="" style="endArrow=classic;html=1;rounded=0;entryX=1;entryY=0;entryDx=0;entryDy=0;" edge="1" parent="1" target="c58yYooRlup-3saje_W5-10">
          <mxGeometry width="50" height="50" relative="1" as="geometry">
            <mxPoint x="810" y="140" as="sourcePoint" />
            <mxPoint x="860" y="90" as="targetPoint" />
          </mxGeometry>
        </mxCell>
        <mxCell id="J6RAhFslYg77qdTQGYrJ-138" value="session" style="text;html=1;align=center;verticalAlign=middle;whiteSpace=wrap;rounded=0;" vertex="1" parent="1">
          <mxGeometry x="630" y="110" width="60" height="30" as="geometry" />
        </mxCell>
        <mxCell id="J6RAhFslYg77qdTQGYrJ-141" value="" style="endArrow=none;html=1;rounded=0;" edge="1" parent="1">
          <mxGeometry width="50" height="50" relative="1" as="geometry">
            <mxPoint x="240" y="310" as="sourcePoint" />
            <mxPoint x="240" y="290" as="targetPoint" />
          </mxGeometry>
        </mxCell>
        <mxCell id="J6RAhFslYg77qdTQGYrJ-142" value="" style="endArrow=classic;html=1;rounded=0;entryX=0.029;entryY=0.388;entryDx=0;entryDy=0;entryPerimeter=0;" edge="1" parent="1" target="c58yYooRlup-3saje_W5-1">
          <mxGeometry width="50" height="50" relative="1" as="geometry">
            <mxPoint x="240" y="290" as="sourcePoint" />
            <mxPoint x="460" y="290" as="targetPoint" />
          </mxGeometry>
        </mxCell>
        <mxCell id="J6RAhFslYg77qdTQGYrJ-144" value="" style="endArrow=none;html=1;rounded=0;entryX=0;entryY=0.462;entryDx=0;entryDy=0;entryPerimeter=0;" edge="1" parent="1" target="c58yYooRlup-3saje_W5-1">
          <mxGeometry width="50" height="50" relative="1" as="geometry">
            <mxPoint x="250" y="300" as="sourcePoint" />
            <mxPoint x="440" y="290" as="targetPoint" />
            <Array as="points">
              <mxPoint x="400" y="300" />
            </Array>
          </mxGeometry>
        </mxCell>
        <mxCell id="J6RAhFslYg77qdTQGYrJ-146" value="" style="endArrow=classic;html=1;rounded=0;entryX=0.667;entryY=0.083;entryDx=0;entryDy=0;entryPerimeter=0;" edge="1" parent="1" target="c58yYooRlup-3saje_W5-7">
          <mxGeometry width="50" height="50" relative="1" as="geometry">
            <mxPoint x="250" y="300" as="sourcePoint" />
            <mxPoint x="300" y="250" as="targetPoint" />
          </mxGeometry>
        </mxCell>
        <mxCell id="J6RAhFslYg77qdTQGYrJ-147" value="session" style="text;html=1;align=center;verticalAlign=middle;whiteSpace=wrap;rounded=0;" vertex="1" parent="1">
          <mxGeometry x="290" y="300" width="60" height="20" as="geometry" />
        </mxCell>
        <mxCell id="J6RAhFslYg77qdTQGYrJ-149" value="credentials" style="text;html=1;align=center;verticalAlign=middle;whiteSpace=wrap;rounded=0;" vertex="1" parent="1">
          <mxGeometry x="370" y="267.5" width="60" height="30" as="geometry" />
        </mxCell>
        <mxCell id="J6RAhFslYg77qdTQGYrJ-150" value="" style="endArrow=none;html=1;rounded=0;" edge="1" parent="1">
          <mxGeometry width="50" height="50" relative="1" as="geometry">
            <mxPoint x="540" y="500" as="sourcePoint" />
            <mxPoint x="540" y="480" as="targetPoint" />
          </mxGeometry>
        </mxCell>
        <mxCell id="J6RAhFslYg77qdTQGYrJ-151" value="" style="endArrow=none;html=1;rounded=0;" edge="1" parent="1">
          <mxGeometry width="50" height="50" relative="1" as="geometry">
            <mxPoint x="540" y="480" as="sourcePoint" />
            <mxPoint x="590" y="480" as="targetPoint" />
          </mxGeometry>
        </mxCell>
        <mxCell id="J6RAhFslYg77qdTQGYrJ-153" value="" style="endArrow=none;html=1;rounded=0;" edge="1" parent="1">
          <mxGeometry width="50" height="50" relative="1" as="geometry">
            <mxPoint x="590" y="480" as="sourcePoint" />
            <mxPoint x="590" y="380" as="targetPoint" />
          </mxGeometry>
        </mxCell>
        <mxCell id="J6RAhFslYg77qdTQGYrJ-156" value="&lt;font style=&quot;font-size: 8px;&quot;&gt;credentials&lt;/font&gt;" style="text;html=1;align=center;verticalAlign=middle;whiteSpace=wrap;rounded=0;" vertex="1" parent="1">
          <mxGeometry x="560" y="360" width="50" height="20" as="geometry" />
        </mxCell>
        <mxCell id="J6RAhFslYg77qdTQGYrJ-160" value="" style="endArrow=none;html=1;rounded=0;" edge="1" parent="1">
          <mxGeometry width="50" height="50" relative="1" as="geometry">
            <mxPoint x="610" y="500" as="sourcePoint" />
            <mxPoint x="610" y="355" as="targetPoint" />
          </mxGeometry>
        </mxCell>
        <mxCell id="J6RAhFslYg77qdTQGYrJ-161" value="" style="endArrow=classic;html=1;rounded=0;entryX=1;entryY=0;entryDx=0;entryDy=0;" edge="1" parent="1" target="c58yYooRlup-3saje_W5-13">
          <mxGeometry width="50" height="50" relative="1" as="geometry">
            <mxPoint x="610" y="500" as="sourcePoint" />
            <mxPoint x="660" y="450" as="targetPoint" />
          </mxGeometry>
        </mxCell>
        <mxCell id="J6RAhFslYg77qdTQGYrJ-162" value="session" style="text;html=1;align=center;verticalAlign=middle;whiteSpace=wrap;rounded=0;" vertex="1" parent="1">
          <mxGeometry x="610" y="455" width="60" height="30" as="geometry" />
        </mxCell>
      </root>
    </mxGraphModel>
  </diagram>
  <diagram id="4g-uIBbXyLv83esqWf2T" name="Page-2">
    <mxGraphModel dx="2291" dy="785" grid="1" gridSize="10" guides="1" tooltips="1" connect="1" arrows="1" fold="1" page="1" pageScale="1" pageWidth="1100" pageHeight="850" math="0" shadow="0">
      <root>
        <mxCell id="0" />
        <mxCell id="1" parent="0" />
        <mxCell id="McF7rYx9Hz_RNk4GY4Bs-130" value="" style="group" connectable="0" vertex="1" parent="1">
          <mxGeometry x="40" y="340" width="80" height="30" as="geometry" />
        </mxCell>
        <mxCell id="McF7rYx9Hz_RNk4GY4Bs-131" value="" style="rounded=0;whiteSpace=wrap;html=1;" vertex="1" parent="McF7rYx9Hz_RNk4GY4Bs-130">
          <mxGeometry width="80" height="27.5" as="geometry" />
        </mxCell>
        <mxCell id="McF7rYx9Hz_RNk4GY4Bs-132" value="&lt;div&gt;Organizer&lt;/div&gt;" style="text;html=1;align=center;verticalAlign=middle;whiteSpace=wrap;rounded=0;" vertex="1" parent="McF7rYx9Hz_RNk4GY4Bs-130">
          <mxGeometry x="10" width="60" height="30" as="geometry" />
        </mxCell>
        <mxCell id="McF7rYx9Hz_RNk4GY4Bs-133" value="" style="group" connectable="0" vertex="1" parent="1">
          <mxGeometry x="495" y="600.5" width="80" height="30" as="geometry" />
        </mxCell>
        <mxCell id="McF7rYx9Hz_RNk4GY4Bs-134" value="" style="rounded=0;whiteSpace=wrap;html=1;" vertex="1" parent="McF7rYx9Hz_RNk4GY4Bs-133">
          <mxGeometry width="80" height="27.5" as="geometry" />
        </mxCell>
        <mxCell id="McF7rYx9Hz_RNk4GY4Bs-135" value="&lt;div&gt;Participant&lt;/div&gt;" style="text;html=1;align=center;verticalAlign=middle;whiteSpace=wrap;rounded=0;" vertex="1" parent="McF7rYx9Hz_RNk4GY4Bs-133">
          <mxGeometry x="10" width="60" height="30" as="geometry" />
        </mxCell>
        <mxCell id="McF7rYx9Hz_RNk4GY4Bs-136" value="&lt;font style=&quot;font-size: 10px;&quot;&gt;Profile created/updated confirmation&lt;/font&gt;" style="text;html=1;align=center;verticalAlign=middle;whiteSpace=wrap;rounded=0;" vertex="1" parent="1">
          <mxGeometry x="540" y="525.5" width="80" height="30" as="geometry" />
        </mxCell>
        <mxCell id="McF7rYx9Hz_RNk4GY4Bs-137" value="&lt;div&gt;User Details&lt;/div&gt;" style="text;html=1;align=center;verticalAlign=middle;whiteSpace=wrap;rounded=0;" vertex="1" parent="1">
          <mxGeometry x="450" y="525.5" width="60" height="30" as="geometry" />
        </mxCell>
        <mxCell id="McF7rYx9Hz_RNk4GY4Bs-138" value="" style="endArrow=classic;html=1;rounded=0;exitX=0.5;exitY=0;exitDx=0;exitDy=0;" edge="1" parent="1">
          <mxGeometry width="50" height="50" relative="1" as="geometry">
            <mxPoint x="520" y="600.5" as="sourcePoint" />
            <mxPoint x="520" y="470.5" as="targetPoint" />
          </mxGeometry>
        </mxCell>
        <mxCell id="McF7rYx9Hz_RNk4GY4Bs-139" value="" style="endArrow=classic;html=1;rounded=0;" edge="1" parent="1">
          <mxGeometry width="50" height="50" relative="1" as="geometry">
            <mxPoint x="120" y="350" as="sourcePoint" />
            <mxPoint x="300" y="350" as="targetPoint" />
          </mxGeometry>
        </mxCell>
        <mxCell id="McF7rYx9Hz_RNk4GY4Bs-140" value="Event Details" style="text;html=1;align=center;verticalAlign=middle;whiteSpace=wrap;rounded=0;" vertex="1" parent="1">
          <mxGeometry x="170" y="310" width="90" height="30" as="geometry" />
        </mxCell>
        <mxCell id="McF7rYx9Hz_RNk4GY4Bs-141" value="" style="endArrow=classic;html=1;rounded=0;exitX=0.023;exitY=0.567;exitDx=0;exitDy=0;exitPerimeter=0;" edge="1" parent="1" source="McF7rYx9Hz_RNk4GY4Bs-159">
          <mxGeometry width="50" height="50" relative="1" as="geometry">
            <mxPoint x="200" y="360" as="sourcePoint" />
            <mxPoint x="120" y="360" as="targetPoint" />
          </mxGeometry>
        </mxCell>
        <mxCell id="McF7rYx9Hz_RNk4GY4Bs-142" value="Event Confirmation" style="text;html=1;align=center;verticalAlign=middle;whiteSpace=wrap;rounded=0;" vertex="1" parent="1">
          <mxGeometry x="170" y="370" width="90" height="30" as="geometry" />
        </mxCell>
        <mxCell id="McF7rYx9Hz_RNk4GY4Bs-143" value="" style="endArrow=classic;html=1;rounded=0;exitX=0.5;exitY=1;exitDx=0;exitDy=0;entryX=0.5;entryY=0;entryDx=0;entryDy=0;" edge="1" parent="1" target="McF7rYx9Hz_RNk4GY4Bs-135">
          <mxGeometry width="50" height="50" relative="1" as="geometry">
            <mxPoint x="535" y="470.5" as="sourcePoint" />
            <mxPoint x="590" y="490.5" as="targetPoint" />
          </mxGeometry>
        </mxCell>
        <mxCell id="McF7rYx9Hz_RNk4GY4Bs-144" value="" style="endArrow=none;html=1;rounded=0;" edge="1" parent="1">
          <mxGeometry width="50" height="50" relative="1" as="geometry">
            <mxPoint x="575" y="610.5" as="sourcePoint" />
            <mxPoint x="720" y="610.5" as="targetPoint" />
          </mxGeometry>
        </mxCell>
        <mxCell id="McF7rYx9Hz_RNk4GY4Bs-145" value="" style="endArrow=none;html=1;rounded=0;" edge="1" parent="1">
          <mxGeometry width="50" height="50" relative="1" as="geometry">
            <mxPoint x="720" y="610.5" as="sourcePoint" />
            <mxPoint x="720" y="440.5" as="targetPoint" />
          </mxGeometry>
        </mxCell>
        <mxCell id="McF7rYx9Hz_RNk4GY4Bs-146" value="" style="endArrow=classic;html=1;rounded=0;" edge="1" parent="1">
          <mxGeometry width="50" height="50" relative="1" as="geometry">
            <mxPoint x="720" y="440.5" as="sourcePoint" />
            <mxPoint x="690" y="440" as="targetPoint" />
          </mxGeometry>
        </mxCell>
        <mxCell id="McF7rYx9Hz_RNk4GY4Bs-147" value="Event Registration Details" style="text;html=1;align=center;verticalAlign=middle;whiteSpace=wrap;rounded=0;" vertex="1" parent="1">
          <mxGeometry x="650" y="495.5" width="60" height="30" as="geometry" />
        </mxCell>
        <mxCell id="McF7rYx9Hz_RNk4GY4Bs-148" value="" style="group" connectable="0" vertex="1" parent="1">
          <mxGeometry x="770" y="430" height="190.5" as="geometry" />
        </mxCell>
        <mxCell id="McF7rYx9Hz_RNk4GY4Bs-149" value="" style="endArrow=none;html=1;rounded=0;exitX=1;exitY=0.5;exitDx=0;exitDy=0;" edge="1" parent="McF7rYx9Hz_RNk4GY4Bs-148" source="McF7rYx9Hz_RNk4GY4Bs-181">
          <mxGeometry width="50" height="50" relative="1" as="geometry">
            <mxPoint x="-30" y="0.47625" as="sourcePoint" />
            <mxPoint as="targetPoint" />
          </mxGeometry>
        </mxCell>
        <mxCell id="McF7rYx9Hz_RNk4GY4Bs-150" value="" style="endArrow=none;html=1;rounded=0;" edge="1" parent="McF7rYx9Hz_RNk4GY4Bs-148">
          <mxGeometry width="50" height="50" relative="1" as="geometry">
            <mxPoint as="sourcePoint" />
            <mxPoint y="190.5" as="targetPoint" />
          </mxGeometry>
        </mxCell>
        <mxCell id="McF7rYx9Hz_RNk4GY4Bs-151" value="" style="endArrow=classic;html=1;rounded=0;entryX=1;entryY=0.75;entryDx=0;entryDy=0;" edge="1" parent="McF7rYx9Hz_RNk4GY4Bs-148" target="McF7rYx9Hz_RNk4GY4Bs-134">
          <mxGeometry width="50" height="50" relative="1" as="geometry">
            <mxPoint y="190.5" as="sourcePoint" />
            <mxPoint x="50" y="142.875" as="targetPoint" />
          </mxGeometry>
        </mxCell>
        <mxCell id="McF7rYx9Hz_RNk4GY4Bs-152" value="&lt;div&gt;Registration Confirmation&lt;/div&gt;&lt;div&gt;&lt;br&gt;&lt;/div&gt;" style="text;html=1;align=center;verticalAlign=middle;whiteSpace=wrap;rounded=0;" vertex="1" parent="1">
          <mxGeometry x="640" y="630.5" width="60" height="30" as="geometry" />
        </mxCell>
        <mxCell id="McF7rYx9Hz_RNk4GY4Bs-153" value="" style="endArrow=none;html=1;rounded=0;exitX=0.92;exitY=0.248;exitDx=0;exitDy=0;exitPerimeter=0;" edge="1" parent="1" source="McF7rYx9Hz_RNk4GY4Bs-181">
          <mxGeometry width="50" height="50" relative="1" as="geometry">
            <mxPoint x="730" y="410" as="sourcePoint" />
            <mxPoint x="800" y="410" as="targetPoint" />
          </mxGeometry>
        </mxCell>
        <mxCell id="McF7rYx9Hz_RNk4GY4Bs-154" value="" style="endArrow=none;html=1;rounded=0;" edge="1" parent="1">
          <mxGeometry width="50" height="50" relative="1" as="geometry">
            <mxPoint x="800" y="700.5" as="sourcePoint" />
            <mxPoint x="800" y="410.5" as="targetPoint" />
          </mxGeometry>
        </mxCell>
        <mxCell id="McF7rYx9Hz_RNk4GY4Bs-155" value="" style="endArrow=none;html=1;rounded=0;" edge="1" parent="1">
          <mxGeometry width="50" height="50" relative="1" as="geometry">
            <mxPoint x="570" y="700.5" as="sourcePoint" />
            <mxPoint x="800" y="700.5" as="targetPoint" />
          </mxGeometry>
        </mxCell>
        <mxCell id="McF7rYx9Hz_RNk4GY4Bs-156" value="" style="endArrow=classic;html=1;rounded=0;" edge="1" parent="1">
          <mxGeometry width="50" height="50" relative="1" as="geometry">
            <mxPoint x="570" y="700.5" as="sourcePoint" />
            <mxPoint x="570" y="628.5" as="targetPoint" />
          </mxGeometry>
        </mxCell>
        <mxCell id="McF7rYx9Hz_RNk4GY4Bs-157" value="event participation details" style="text;html=1;align=center;verticalAlign=middle;whiteSpace=wrap;rounded=0;" vertex="1" parent="1">
          <mxGeometry x="617.5" y="710.5" width="180" height="30" as="geometry" />
        </mxCell>
        <mxCell id="McF7rYx9Hz_RNk4GY4Bs-158" value="" style="group" connectable="0" vertex="1" parent="1">
          <mxGeometry x="300" y="315" width="80" height="80" as="geometry" />
        </mxCell>
        <mxCell id="McF7rYx9Hz_RNk4GY4Bs-159" value="Event Creation" style="ellipse;whiteSpace=wrap;html=1;aspect=fixed;" vertex="1" parent="McF7rYx9Hz_RNk4GY4Bs-158">
          <mxGeometry width="80" height="80" as="geometry" />
        </mxCell>
        <mxCell id="McF7rYx9Hz_RNk4GY4Bs-160" value="" style="endArrow=none;html=1;rounded=0;exitX=0.109;exitY=0.185;exitDx=0;exitDy=0;exitPerimeter=0;entryX=0.894;entryY=0.188;entryDx=0;entryDy=0;entryPerimeter=0;" edge="1" parent="McF7rYx9Hz_RNk4GY4Bs-158" source="McF7rYx9Hz_RNk4GY4Bs-159" target="McF7rYx9Hz_RNk4GY4Bs-159">
          <mxGeometry width="50" height="50" relative="1" as="geometry">
            <mxPoint x="10" y="15" as="sourcePoint" />
            <mxPoint x="70" y="15" as="targetPoint" />
          </mxGeometry>
        </mxCell>
        <mxCell id="McF7rYx9Hz_RNk4GY4Bs-161" value="" style="endArrow=none;html=1;rounded=0;entryX=0.5;entryY=1;entryDx=0;entryDy=0;" edge="1" parent="1" target="McF7rYx9Hz_RNk4GY4Bs-159">
          <mxGeometry width="50" height="50" relative="1" as="geometry">
            <mxPoint x="340" y="570" as="sourcePoint" />
            <mxPoint x="340" y="400" as="targetPoint" />
          </mxGeometry>
        </mxCell>
        <mxCell id="McF7rYx9Hz_RNk4GY4Bs-162" value="" style="endArrow=none;html=1;rounded=0;" edge="1" parent="1">
          <mxGeometry width="50" height="50" relative="1" as="geometry">
            <mxPoint x="240" y="570" as="sourcePoint" />
            <mxPoint x="340" y="570" as="targetPoint" />
          </mxGeometry>
        </mxCell>
        <mxCell id="McF7rYx9Hz_RNk4GY4Bs-163" value="" style="endArrow=classic;html=1;rounded=0;entryX=0.837;entryY=0.013;entryDx=0;entryDy=0;entryPerimeter=0;" edge="1" parent="1" target="McF7rYx9Hz_RNk4GY4Bs-171">
          <mxGeometry width="50" height="50" relative="1" as="geometry">
            <mxPoint x="240" y="570" as="sourcePoint" />
            <mxPoint x="290" y="520" as="targetPoint" />
          </mxGeometry>
        </mxCell>
        <mxCell id="McF7rYx9Hz_RNk4GY4Bs-164" value="Event Details" style="text;html=1;align=center;verticalAlign=middle;whiteSpace=wrap;rounded=0;" vertex="1" parent="1">
          <mxGeometry x="240" y="450" width="90" height="30" as="geometry" />
        </mxCell>
        <mxCell id="McF7rYx9Hz_RNk4GY4Bs-165" value="" style="group" connectable="0" vertex="1" parent="1">
          <mxGeometry x="490" y="390" width="80" height="80" as="geometry" />
        </mxCell>
        <mxCell id="McF7rYx9Hz_RNk4GY4Bs-166" value="User Profile Management" style="ellipse;whiteSpace=wrap;html=1;aspect=fixed;" vertex="1" parent="McF7rYx9Hz_RNk4GY4Bs-165">
          <mxGeometry width="80" height="80" as="geometry" />
        </mxCell>
        <mxCell id="McF7rYx9Hz_RNk4GY4Bs-167" value="" style="endArrow=none;html=1;rounded=0;exitX=0.109;exitY=0.185;exitDx=0;exitDy=0;exitPerimeter=0;entryX=0.894;entryY=0.188;entryDx=0;entryDy=0;entryPerimeter=0;" edge="1" parent="McF7rYx9Hz_RNk4GY4Bs-165" source="McF7rYx9Hz_RNk4GY4Bs-166" target="McF7rYx9Hz_RNk4GY4Bs-166">
          <mxGeometry width="50" height="50" relative="1" as="geometry">
            <mxPoint x="10" y="15" as="sourcePoint" />
            <mxPoint x="70" y="15" as="targetPoint" />
          </mxGeometry>
        </mxCell>
        <mxCell id="McF7rYx9Hz_RNk4GY4Bs-168" value="" style="group" connectable="0" vertex="1" parent="1">
          <mxGeometry x="170" y="600" width="100" height="30" as="geometry" />
        </mxCell>
        <mxCell id="McF7rYx9Hz_RNk4GY4Bs-169" value="" style="endArrow=none;html=1;rounded=0;" edge="1" parent="McF7rYx9Hz_RNk4GY4Bs-168">
          <mxGeometry width="50" height="50" relative="1" as="geometry">
            <mxPoint as="sourcePoint" />
            <mxPoint x="100" as="targetPoint" />
          </mxGeometry>
        </mxCell>
        <mxCell id="McF7rYx9Hz_RNk4GY4Bs-170" value="" style="endArrow=none;html=1;rounded=0;" edge="1" parent="McF7rYx9Hz_RNk4GY4Bs-168">
          <mxGeometry width="50" height="50" relative="1" as="geometry">
            <mxPoint y="30" as="sourcePoint" />
            <mxPoint x="100" y="30" as="targetPoint" />
          </mxGeometry>
        </mxCell>
        <mxCell id="McF7rYx9Hz_RNk4GY4Bs-171" value="Events" style="text;html=1;align=center;verticalAlign=middle;resizable=0;points=[];autosize=1;strokeColor=none;fillColor=none;" vertex="1" parent="McF7rYx9Hz_RNk4GY4Bs-168">
          <mxGeometry x="20" width="60" height="30" as="geometry" />
        </mxCell>
        <mxCell id="McF7rYx9Hz_RNk4GY4Bs-172" value="" style="group" connectable="0" vertex="1" parent="1">
          <mxGeometry x="280" y="140" width="100" height="30" as="geometry" />
        </mxCell>
        <mxCell id="McF7rYx9Hz_RNk4GY4Bs-173" value="" style="endArrow=none;html=1;rounded=0;" edge="1" parent="McF7rYx9Hz_RNk4GY4Bs-172">
          <mxGeometry width="50" height="50" relative="1" as="geometry">
            <mxPoint as="sourcePoint" />
            <mxPoint x="100" as="targetPoint" />
          </mxGeometry>
        </mxCell>
        <mxCell id="McF7rYx9Hz_RNk4GY4Bs-174" value="" style="endArrow=none;html=1;rounded=0;" edge="1" parent="McF7rYx9Hz_RNk4GY4Bs-172">
          <mxGeometry width="50" height="50" relative="1" as="geometry">
            <mxPoint y="30" as="sourcePoint" />
            <mxPoint x="100" y="30" as="targetPoint" />
          </mxGeometry>
        </mxCell>
        <mxCell id="McF7rYx9Hz_RNk4GY4Bs-175" value="Users" style="text;html=1;align=center;verticalAlign=middle;resizable=0;points=[];autosize=1;strokeColor=none;fillColor=none;" vertex="1" parent="McF7rYx9Hz_RNk4GY4Bs-172">
          <mxGeometry x="25" width="50" height="30" as="geometry" />
        </mxCell>
        <mxCell id="McF7rYx9Hz_RNk4GY4Bs-176" value="" style="endArrow=classic;html=1;rounded=0;entryX=0.469;entryY=0.995;entryDx=0;entryDy=0;entryPerimeter=0;" edge="1" parent="1" target="McF7rYx9Hz_RNk4GY4Bs-175">
          <mxGeometry width="50" height="50" relative="1" as="geometry">
            <mxPoint x="330" y="280" as="sourcePoint" />
            <mxPoint x="360" y="180" as="targetPoint" />
          </mxGeometry>
        </mxCell>
        <mxCell id="McF7rYx9Hz_RNk4GY4Bs-177" value="" style="endArrow=none;html=1;rounded=0;" edge="1" parent="1">
          <mxGeometry width="50" height="50" relative="1" as="geometry">
            <mxPoint x="330" y="280" as="sourcePoint" />
            <mxPoint x="510" y="280" as="targetPoint" />
          </mxGeometry>
        </mxCell>
        <mxCell id="McF7rYx9Hz_RNk4GY4Bs-178" value="" style="endArrow=none;html=1;rounded=0;exitX=0.253;exitY=0.077;exitDx=0;exitDy=0;exitPerimeter=0;" edge="1" parent="1" source="McF7rYx9Hz_RNk4GY4Bs-166">
          <mxGeometry width="50" height="50" relative="1" as="geometry">
            <mxPoint x="470" y="360" as="sourcePoint" />
            <mxPoint x="510" y="280" as="targetPoint" />
          </mxGeometry>
        </mxCell>
        <mxCell id="McF7rYx9Hz_RNk4GY4Bs-179" value="&lt;div&gt;User Details&lt;/div&gt;" style="text;html=1;align=center;verticalAlign=middle;whiteSpace=wrap;rounded=0;" vertex="1" parent="1">
          <mxGeometry x="430" y="300" width="60" height="30" as="geometry" />
        </mxCell>
        <mxCell id="McF7rYx9Hz_RNk4GY4Bs-180" value="" style="group" connectable="0" vertex="1" parent="1">
          <mxGeometry x="610" y="390" width="80" height="80" as="geometry" />
        </mxCell>
        <mxCell id="McF7rYx9Hz_RNk4GY4Bs-181" value="Event Registration" style="ellipse;whiteSpace=wrap;html=1;aspect=fixed;" vertex="1" parent="McF7rYx9Hz_RNk4GY4Bs-180">
          <mxGeometry width="80" height="80" as="geometry" />
        </mxCell>
        <mxCell id="McF7rYx9Hz_RNk4GY4Bs-182" value="" style="endArrow=none;html=1;rounded=0;exitX=0.109;exitY=0.185;exitDx=0;exitDy=0;exitPerimeter=0;entryX=0.894;entryY=0.188;entryDx=0;entryDy=0;entryPerimeter=0;" edge="1" parent="McF7rYx9Hz_RNk4GY4Bs-180" source="McF7rYx9Hz_RNk4GY4Bs-181" target="McF7rYx9Hz_RNk4GY4Bs-181">
          <mxGeometry width="50" height="50" relative="1" as="geometry">
            <mxPoint x="10" y="15" as="sourcePoint" />
            <mxPoint x="70" y="15" as="targetPoint" />
          </mxGeometry>
        </mxCell>
        <mxCell id="McF7rYx9Hz_RNk4GY4Bs-183" value="" style="endArrow=none;html=1;rounded=0;" edge="1" parent="1">
          <mxGeometry width="50" height="50" relative="1" as="geometry">
            <mxPoint x="920" y="340" as="sourcePoint" />
            <mxPoint x="650" y="340" as="targetPoint" />
          </mxGeometry>
        </mxCell>
        <mxCell id="McF7rYx9Hz_RNk4GY4Bs-184" value="" style="endArrow=none;html=1;rounded=0;" edge="1" parent="1">
          <mxGeometry width="50" height="50" relative="1" as="geometry">
            <mxPoint x="650" y="390" as="sourcePoint" />
            <mxPoint x="650" y="340" as="targetPoint" />
          </mxGeometry>
        </mxCell>
        <mxCell id="McF7rYx9Hz_RNk4GY4Bs-185" value="" style="endArrow=classic;html=1;rounded=0;" edge="1" parent="1">
          <mxGeometry width="50" height="50" relative="1" as="geometry">
            <mxPoint x="920" y="340" as="sourcePoint" />
            <mxPoint x="920" y="280" as="targetPoint" />
          </mxGeometry>
        </mxCell>
        <mxCell id="McF7rYx9Hz_RNk4GY4Bs-186" value="" style="group" connectable="0" vertex="1" parent="1">
          <mxGeometry x="839.996923076923" y="250" width="170.00307692307695" height="30" as="geometry" />
        </mxCell>
        <mxCell id="McF7rYx9Hz_RNk4GY4Bs-187" value="" style="endArrow=none;html=1;rounded=0;" edge="1" parent="McF7rYx9Hz_RNk4GY4Bs-186">
          <mxGeometry width="50" height="50" relative="1" as="geometry">
            <mxPoint x="0.003076923076946514" as="sourcePoint" />
            <mxPoint x="170.00307692307695" as="targetPoint" />
          </mxGeometry>
        </mxCell>
        <mxCell id="McF7rYx9Hz_RNk4GY4Bs-188" value="" style="endArrow=none;html=1;rounded=0;" edge="1" parent="McF7rYx9Hz_RNk4GY4Bs-186">
          <mxGeometry width="50" height="50" relative="1" as="geometry">
            <mxPoint x="0.003076923076946514" y="30" as="sourcePoint" />
            <mxPoint x="170.00307692307695" y="30" as="targetPoint" />
          </mxGeometry>
        </mxCell>
        <mxCell id="McF7rYx9Hz_RNk4GY4Bs-189" value="Registered Event Details" style="text;html=1;align=center;verticalAlign=middle;resizable=0;points=[];autosize=1;strokeColor=none;fillColor=none;" vertex="1" parent="McF7rYx9Hz_RNk4GY4Bs-186">
          <mxGeometry width="160" height="30" as="geometry" />
        </mxCell>
        <mxCell id="McF7rYx9Hz_RNk4GY4Bs-190" value="" style="group" connectable="0" vertex="1" parent="1">
          <mxGeometry x="572.5" y="40" width="80" height="30" as="geometry" />
        </mxCell>
        <mxCell id="McF7rYx9Hz_RNk4GY4Bs-191" value="" style="rounded=0;whiteSpace=wrap;html=1;" vertex="1" parent="McF7rYx9Hz_RNk4GY4Bs-190">
          <mxGeometry width="80" height="27.5" as="geometry" />
        </mxCell>
        <mxCell id="McF7rYx9Hz_RNk4GY4Bs-192" value="&lt;div&gt;Admin&lt;/div&gt;" style="text;html=1;align=center;verticalAlign=middle;whiteSpace=wrap;rounded=0;" vertex="1" parent="McF7rYx9Hz_RNk4GY4Bs-190">
          <mxGeometry x="10" width="60" height="30" as="geometry" />
        </mxCell>
        <mxCell id="McF7rYx9Hz_RNk4GY4Bs-193" value="&lt;font style=&quot;font-size: 10px;&quot;&gt;&lt;span lang=&quot;EN&quot; style=&quot;line-height: 115%;&quot;&gt;Reporting parameters &lt;/span&gt;&lt;/font&gt;" style="text;whiteSpace=wrap;html=1;" vertex="1" parent="1">
          <mxGeometry x="507.5" y="90" width="110" height="30" as="geometry" />
        </mxCell>
        <mxCell id="McF7rYx9Hz_RNk4GY4Bs-194" value="&lt;font style=&quot;font-size: 10px;&quot;&gt;&lt;span lang=&quot;EN&quot; style=&quot;line-height: 115%;&quot;&gt;feedback summaries&lt;/span&gt;&lt;/font&gt;" style="text;whiteSpace=wrap;html=1;" vertex="1" parent="1">
          <mxGeometry x="642.5" y="80" width="70" height="50" as="geometry" />
        </mxCell>
        <mxCell id="McF7rYx9Hz_RNk4GY4Bs-195" value="" style="endArrow=classic;html=1;rounded=0;exitX=0.531;exitY=0.932;exitDx=0;exitDy=0;exitPerimeter=0;entryX=0.423;entryY=0.015;entryDx=0;entryDy=0;entryPerimeter=0;" edge="1" parent="1" source="McF7rYx9Hz_RNk4GY4Bs-192" target="McF7rYx9Hz_RNk4GY4Bs-203">
          <mxGeometry width="50" height="50" relative="1" as="geometry">
            <mxPoint x="652.5" y="100" as="sourcePoint" />
            <mxPoint x="613.5" y="140" as="targetPoint" />
          </mxGeometry>
        </mxCell>
        <mxCell id="McF7rYx9Hz_RNk4GY4Bs-196" value="" style="endArrow=classic;html=1;rounded=0;entryX=0.84;entryY=0.918;entryDx=0;entryDy=0;entryPerimeter=0;exitX=0.667;exitY=0.045;exitDx=0;exitDy=0;exitPerimeter=0;" edge="1" parent="1" source="McF7rYx9Hz_RNk4GY4Bs-203" target="McF7rYx9Hz_RNk4GY4Bs-192">
          <mxGeometry width="50" height="50" relative="1" as="geometry">
            <mxPoint x="633.5" y="142" as="sourcePoint" />
            <mxPoint x="632.5" y="70" as="targetPoint" />
          </mxGeometry>
        </mxCell>
        <mxCell id="McF7rYx9Hz_RNk4GY4Bs-197" value="&lt;font style=&quot;font-size: 10px;&quot;&gt;&lt;span lang=&quot;EN&quot; style=&quot;line-height: 115%;&quot;&gt;Event participation&lt;br&gt;statistics&lt;/span&gt;&lt;/font&gt;" style="text;whiteSpace=wrap;html=1;" vertex="1" parent="1">
          <mxGeometry x="767.5" y="75" width="85" height="35" as="geometry" />
        </mxCell>
        <mxCell id="McF7rYx9Hz_RNk4GY4Bs-198" value="" style="group" connectable="0" vertex="1" parent="1">
          <mxGeometry x="762.5" y="60" height="120" as="geometry" />
        </mxCell>
        <mxCell id="McF7rYx9Hz_RNk4GY4Bs-199" value="" style="endArrow=none;html=1;rounded=0;" edge="1" parent="McF7rYx9Hz_RNk4GY4Bs-198">
          <mxGeometry width="50" height="50" relative="1" as="geometry">
            <mxPoint y="120" as="sourcePoint" />
            <mxPoint as="targetPoint" />
          </mxGeometry>
        </mxCell>
        <mxCell id="McF7rYx9Hz_RNk4GY4Bs-200" value="" style="endArrow=none;html=1;rounded=0;exitX=0.956;exitY=0.263;exitDx=0;exitDy=0;exitPerimeter=0;" edge="1" parent="McF7rYx9Hz_RNk4GY4Bs-198" source="McF7rYx9Hz_RNk4GY4Bs-203">
          <mxGeometry width="50" height="50" relative="1" as="geometry">
            <mxPoint x="-62.5" y="120" as="sourcePoint" />
            <mxPoint y="120" as="targetPoint" />
          </mxGeometry>
        </mxCell>
        <mxCell id="McF7rYx9Hz_RNk4GY4Bs-201" value="" style="endArrow=classic;html=1;rounded=0;entryX=1;entryY=0.75;entryDx=0;entryDy=0;" edge="1" parent="McF7rYx9Hz_RNk4GY4Bs-198" target="McF7rYx9Hz_RNk4GY4Bs-191">
          <mxGeometry width="50" height="50" relative="1" as="geometry">
            <mxPoint as="sourcePoint" />
            <mxPoint x="50" y="-50" as="targetPoint" />
          </mxGeometry>
        </mxCell>
        <mxCell id="McF7rYx9Hz_RNk4GY4Bs-202" value="" style="group" connectable="0" vertex="1" parent="1">
          <mxGeometry x="580" y="160" width="80" height="80" as="geometry" />
        </mxCell>
        <mxCell id="McF7rYx9Hz_RNk4GY4Bs-203" value="&lt;font style=&quot;font-size: 11px;&quot;&gt;Report/Feedback Management&lt;/font&gt;" style="ellipse;whiteSpace=wrap;html=1;aspect=fixed;" vertex="1" parent="McF7rYx9Hz_RNk4GY4Bs-202">
          <mxGeometry width="80" height="80" as="geometry" />
        </mxCell>
        <mxCell id="McF7rYx9Hz_RNk4GY4Bs-204" value="" style="endArrow=none;html=1;rounded=0;exitX=0.109;exitY=0.185;exitDx=0;exitDy=0;exitPerimeter=0;entryX=0.894;entryY=0.188;entryDx=0;entryDy=0;entryPerimeter=0;" edge="1" parent="McF7rYx9Hz_RNk4GY4Bs-202" source="McF7rYx9Hz_RNk4GY4Bs-203" target="McF7rYx9Hz_RNk4GY4Bs-203">
          <mxGeometry width="50" height="50" relative="1" as="geometry">
            <mxPoint x="10" y="15" as="sourcePoint" />
            <mxPoint x="70" y="15" as="targetPoint" />
          </mxGeometry>
        </mxCell>
        <mxCell id="McF7rYx9Hz_RNk4GY4Bs-205" value="" style="endArrow=none;html=1;rounded=0;exitX=0.688;exitY=0;exitDx=0;exitDy=0;exitPerimeter=0;" edge="1" parent="1" source="McF7rYx9Hz_RNk4GY4Bs-189">
          <mxGeometry width="50" height="50" relative="1" as="geometry">
            <mxPoint x="900" y="210" as="sourcePoint" />
            <mxPoint x="950" y="210" as="targetPoint" />
          </mxGeometry>
        </mxCell>
        <mxCell id="McF7rYx9Hz_RNk4GY4Bs-206" value="" style="endArrow=none;html=1;rounded=0;" edge="1" parent="1">
          <mxGeometry width="50" height="50" relative="1" as="geometry">
            <mxPoint x="870" y="210" as="sourcePoint" />
            <mxPoint x="950" y="210" as="targetPoint" />
          </mxGeometry>
        </mxCell>
        <mxCell id="McF7rYx9Hz_RNk4GY4Bs-207" value="" style="endArrow=classic;html=1;rounded=0;entryX=0.98;entryY=0.403;entryDx=0;entryDy=0;entryPerimeter=0;" edge="1" parent="1">
          <mxGeometry width="50" height="50" relative="1" as="geometry">
            <mxPoint x="880" y="210" as="sourcePoint" />
            <mxPoint x="656.7" y="212.2399999999999" as="targetPoint" />
          </mxGeometry>
        </mxCell>
        <mxCell id="McF7rYx9Hz_RNk4GY4Bs-208" value="" style="endArrow=none;html=1;rounded=0;" edge="1" parent="1">
          <mxGeometry width="50" height="50" relative="1" as="geometry">
            <mxPoint x="370" y="190" as="sourcePoint" />
            <mxPoint x="470" y="190" as="targetPoint" />
          </mxGeometry>
        </mxCell>
        <mxCell id="McF7rYx9Hz_RNk4GY4Bs-209" value="" style="endArrow=classic;html=1;rounded=0;entryX=0.043;entryY=0.383;entryDx=0;entryDy=0;entryPerimeter=0;" edge="1" parent="1" target="McF7rYx9Hz_RNk4GY4Bs-203">
          <mxGeometry width="50" height="50" relative="1" as="geometry">
            <mxPoint x="470" y="190" as="sourcePoint" />
            <mxPoint x="520" y="140" as="targetPoint" />
          </mxGeometry>
        </mxCell>
        <mxCell id="McF7rYx9Hz_RNk4GY4Bs-210" value="" style="endArrow=none;html=1;rounded=0;" edge="1" parent="1">
          <mxGeometry width="50" height="50" relative="1" as="geometry">
            <mxPoint x="370" y="190" as="sourcePoint" />
            <mxPoint x="370" y="170" as="targetPoint" />
          </mxGeometry>
        </mxCell>
        <mxCell id="McF7rYx9Hz_RNk4GY4Bs-211" value="" style="group" connectable="0" vertex="1" parent="1">
          <mxGeometry x="290.13" y="690" width="80" height="80" as="geometry" />
        </mxCell>
        <mxCell id="McF7rYx9Hz_RNk4GY4Bs-212" value="Query Events" style="ellipse;whiteSpace=wrap;html=1;aspect=fixed;" vertex="1" parent="McF7rYx9Hz_RNk4GY4Bs-211">
          <mxGeometry width="80" height="80" as="geometry" />
        </mxCell>
        <mxCell id="McF7rYx9Hz_RNk4GY4Bs-213" value="" style="endArrow=none;html=1;rounded=0;exitX=0.109;exitY=0.185;exitDx=0;exitDy=0;exitPerimeter=0;entryX=0.894;entryY=0.188;entryDx=0;entryDy=0;entryPerimeter=0;" edge="1" parent="McF7rYx9Hz_RNk4GY4Bs-211" source="McF7rYx9Hz_RNk4GY4Bs-212" target="McF7rYx9Hz_RNk4GY4Bs-212">
          <mxGeometry width="50" height="50" relative="1" as="geometry">
            <mxPoint x="10" y="15" as="sourcePoint" />
            <mxPoint x="70" y="15" as="targetPoint" />
          </mxGeometry>
        </mxCell>
        <mxCell id="McF7rYx9Hz_RNk4GY4Bs-214" value="" style="endArrow=classic;html=1;rounded=0;" edge="1" parent="1">
          <mxGeometry width="50" height="50" relative="1" as="geometry">
            <mxPoint x="80" y="720" as="sourcePoint" />
            <mxPoint x="290.13" y="720" as="targetPoint" />
          </mxGeometry>
        </mxCell>
        <mxCell id="McF7rYx9Hz_RNk4GY4Bs-215" value="" style="endArrow=classic;html=1;rounded=0;entryX=1;entryY=0.5;entryDx=0;entryDy=0;" edge="1" parent="1" target="McF7rYx9Hz_RNk4GY4Bs-212">
          <mxGeometry width="50" height="50" relative="1" as="geometry">
            <mxPoint x="530" y="730" as="sourcePoint" />
            <mxPoint x="490.13" y="680.5" as="targetPoint" />
          </mxGeometry>
        </mxCell>
        <mxCell id="McF7rYx9Hz_RNk4GY4Bs-216" value="" style="endArrow=none;html=1;rounded=0;entryX=0.5;entryY=1;entryDx=0;entryDy=0;" edge="1" parent="1" target="McF7rYx9Hz_RNk4GY4Bs-131">
          <mxGeometry width="50" height="50" relative="1" as="geometry">
            <mxPoint x="80" y="720" as="sourcePoint" />
            <mxPoint x="115" y="390" as="targetPoint" />
          </mxGeometry>
        </mxCell>
        <mxCell id="McF7rYx9Hz_RNk4GY4Bs-217" value="" style="endArrow=none;html=1;rounded=0;entryX=0.42;entryY=0.92;entryDx=0;entryDy=0;entryPerimeter=0;" edge="1" parent="1" target="McF7rYx9Hz_RNk4GY4Bs-135">
          <mxGeometry width="50" height="50" relative="1" as="geometry">
            <mxPoint x="530" y="730" as="sourcePoint" />
            <mxPoint x="530" y="630" as="targetPoint" />
          </mxGeometry>
        </mxCell>
        <mxCell id="McF7rYx9Hz_RNk4GY4Bs-218" value="" style="endArrow=none;html=1;rounded=0;" edge="1" parent="1">
          <mxGeometry width="50" height="50" relative="1" as="geometry">
            <mxPoint x="260" y="700" as="sourcePoint" />
            <mxPoint x="260" y="630" as="targetPoint" />
          </mxGeometry>
        </mxCell>
        <mxCell id="McF7rYx9Hz_RNk4GY4Bs-219" value="" style="endArrow=classic;html=1;rounded=0;entryX=0.428;entryY=0;entryDx=0;entryDy=0;entryPerimeter=0;" edge="1" parent="1">
          <mxGeometry width="50" height="50" relative="1" as="geometry">
            <mxPoint x="260" y="700" as="sourcePoint" />
            <mxPoint x="304.37" y="700" as="targetPoint" />
          </mxGeometry>
        </mxCell>
        <mxCell id="McF7rYx9Hz_RNk4GY4Bs-220" value="Event List" style="text;html=1;align=center;verticalAlign=middle;whiteSpace=wrap;rounded=0;" vertex="1" parent="1">
          <mxGeometry x="250" y="650" width="90" height="30" as="geometry" />
        </mxCell>
        <mxCell id="McF7rYx9Hz_RNk4GY4Bs-221" value="&lt;div&gt;Request for event lists&lt;/div&gt;&lt;div&gt;&lt;br&gt;&lt;/div&gt;" style="text;html=1;align=center;verticalAlign=middle;whiteSpace=wrap;rounded=0;" vertex="1" parent="1">
          <mxGeometry x="70" y="450" width="90" height="55" as="geometry" />
        </mxCell>
        <mxCell id="McF7rYx9Hz_RNk4GY4Bs-222" value="&lt;div&gt;Request for event lists&lt;/div&gt;&lt;div&gt;&lt;br&gt;&lt;/div&gt;" style="text;html=1;align=center;verticalAlign=middle;whiteSpace=wrap;rounded=0;" vertex="1" parent="1">
          <mxGeometry x="417.5" y="730" width="90" height="55" as="geometry" />
        </mxCell>
        <mxCell id="McF7rYx9Hz_RNk4GY4Bs-223" value="" style="endArrow=none;html=1;rounded=0;entryX=0.095;entryY=0.239;entryDx=0;entryDy=0;entryPerimeter=0;" edge="1" parent="1" target="McF7rYx9Hz_RNk4GY4Bs-212">
          <mxGeometry width="50" height="50" relative="1" as="geometry">
            <mxPoint x="180" y="709" as="sourcePoint" />
            <mxPoint x="270" y="680" as="targetPoint" />
          </mxGeometry>
        </mxCell>
        <mxCell id="McF7rYx9Hz_RNk4GY4Bs-224" value="" style="endArrow=classic;html=1;rounded=0;" edge="1" parent="1">
          <mxGeometry width="50" height="50" relative="1" as="geometry">
            <mxPoint x="180" y="711" as="sourcePoint" />
            <mxPoint x="180" y="630" as="targetPoint" />
          </mxGeometry>
        </mxCell>
        <mxCell id="McF7rYx9Hz_RNk4GY4Bs-225" value="Event Query" style="text;html=1;align=center;verticalAlign=middle;whiteSpace=wrap;rounded=0;" vertex="1" parent="1">
          <mxGeometry x="180" y="650" width="60" height="30" as="geometry" />
        </mxCell>
        <mxCell id="McF7rYx9Hz_RNk4GY4Bs-226" value="" style="endArrow=none;html=1;rounded=0;entryX=0;entryY=0.5;entryDx=0;entryDy=0;" edge="1" parent="1" target="McF7rYx9Hz_RNk4GY4Bs-212">
          <mxGeometry width="50" height="50" relative="1" as="geometry">
            <mxPoint x="50" y="730" as="sourcePoint" />
            <mxPoint x="210" y="735" as="targetPoint" />
          </mxGeometry>
        </mxCell>
        <mxCell id="McF7rYx9Hz_RNk4GY4Bs-227" value="" style="endArrow=classic;html=1;rounded=0;entryX=0.132;entryY=1.017;entryDx=0;entryDy=0;entryPerimeter=0;" edge="1" parent="1" target="McF7rYx9Hz_RNk4GY4Bs-131">
          <mxGeometry width="50" height="50" relative="1" as="geometry">
            <mxPoint x="50" y="730" as="sourcePoint" />
            <mxPoint x="50" y="370" as="targetPoint" />
          </mxGeometry>
        </mxCell>
        <mxCell id="McF7rYx9Hz_RNk4GY4Bs-228" value="" style="endArrow=none;html=1;rounded=0;exitX=0.981;exitY=0.372;exitDx=0;exitDy=0;exitPerimeter=0;" edge="1" parent="1" source="McF7rYx9Hz_RNk4GY4Bs-212">
          <mxGeometry width="50" height="50" relative="1" as="geometry">
            <mxPoint x="370" y="720" as="sourcePoint" />
            <mxPoint x="520" y="720" as="targetPoint" />
          </mxGeometry>
        </mxCell>
        <mxCell id="McF7rYx9Hz_RNk4GY4Bs-229" value="" style="endArrow=classic;html=1;rounded=0;entryX=0.299;entryY=1.004;entryDx=0;entryDy=0;entryPerimeter=0;" edge="1" parent="1" target="McF7rYx9Hz_RNk4GY4Bs-134">
          <mxGeometry width="50" height="50" relative="1" as="geometry">
            <mxPoint x="520" y="720" as="sourcePoint" />
            <mxPoint x="520" y="660" as="targetPoint" />
          </mxGeometry>
        </mxCell>
        <mxCell id="McF7rYx9Hz_RNk4GY4Bs-230" value="Event List" style="text;html=1;align=center;verticalAlign=middle;whiteSpace=wrap;rounded=0;" vertex="1" parent="1">
          <mxGeometry x="-30" y="405" width="90" height="30" as="geometry" />
        </mxCell>
        <mxCell id="McF7rYx9Hz_RNk4GY4Bs-231" value="Event List" style="text;html=1;align=center;verticalAlign=middle;whiteSpace=wrap;rounded=0;" vertex="1" parent="1">
          <mxGeometry x="390" y="690" width="90" height="30" as="geometry" />
        </mxCell>
        <mxCell id="McF7rYx9Hz_RNk4GY4Bs-232" value="" style="group" connectable="0" vertex="1" parent="1">
          <mxGeometry x="-10" y="130" width="80" height="80" as="geometry" />
        </mxCell>
        <mxCell id="McF7rYx9Hz_RNk4GY4Bs-233" value="Authenticate" style="ellipse;whiteSpace=wrap;html=1;aspect=fixed;" vertex="1" parent="McF7rYx9Hz_RNk4GY4Bs-232">
          <mxGeometry width="80" height="80" as="geometry" />
        </mxCell>
        <mxCell id="McF7rYx9Hz_RNk4GY4Bs-234" value="" style="endArrow=none;html=1;rounded=0;exitX=0.109;exitY=0.185;exitDx=0;exitDy=0;exitPerimeter=0;entryX=0.894;entryY=0.188;entryDx=0;entryDy=0;entryPerimeter=0;" edge="1" parent="McF7rYx9Hz_RNk4GY4Bs-232" source="McF7rYx9Hz_RNk4GY4Bs-233" target="McF7rYx9Hz_RNk4GY4Bs-233">
          <mxGeometry width="50" height="50" relative="1" as="geometry">
            <mxPoint x="10" y="15" as="sourcePoint" />
            <mxPoint x="70" y="15" as="targetPoint" />
          </mxGeometry>
        </mxCell>
        <mxCell id="McF7rYx9Hz_RNk4GY4Bs-235" value="" style="endArrow=none;html=1;rounded=0;entryX=0;entryY=0.5;entryDx=0;entryDy=0;" edge="1" parent="1">
          <mxGeometry width="50" height="50" relative="1" as="geometry">
            <mxPoint x="30" y="60.25" as="sourcePoint" />
            <mxPoint x="572.5" y="60" as="targetPoint" />
          </mxGeometry>
        </mxCell>
        <mxCell id="McF7rYx9Hz_RNk4GY4Bs-236" value="" style="endArrow=classic;html=1;rounded=0;entryX=0.5;entryY=0;entryDx=0;entryDy=0;" edge="1" parent="1" target="McF7rYx9Hz_RNk4GY4Bs-233">
          <mxGeometry width="50" height="50" relative="1" as="geometry">
            <mxPoint x="30" y="60" as="sourcePoint" />
            <mxPoint x="80" as="targetPoint" />
          </mxGeometry>
        </mxCell>
        <mxCell id="McF7rYx9Hz_RNk4GY4Bs-237" value="credentials" style="text;html=1;align=center;verticalAlign=middle;resizable=0;points=[];autosize=1;strokeColor=none;fillColor=none;" vertex="1" parent="1">
          <mxGeometry x="240" y="60" width="80" height="30" as="geometry" />
        </mxCell>
        <mxCell id="McF7rYx9Hz_RNk4GY4Bs-238" value="" style="endArrow=none;html=1;rounded=0;exitX=0.253;exitY=0.064;exitDx=0;exitDy=0;exitPerimeter=0;" edge="1" parent="1" source="McF7rYx9Hz_RNk4GY4Bs-233">
          <mxGeometry width="50" height="50" relative="1" as="geometry">
            <mxPoint x="10" y="130" as="sourcePoint" />
            <mxPoint x="10" y="50" as="targetPoint" />
          </mxGeometry>
        </mxCell>
        <mxCell id="McF7rYx9Hz_RNk4GY4Bs-239" value="" style="endArrow=classic;html=1;rounded=0;" edge="1" parent="1">
          <mxGeometry width="50" height="50" relative="1" as="geometry">
            <mxPoint x="10" y="50" as="sourcePoint" />
            <mxPoint x="570" y="50" as="targetPoint" />
          </mxGeometry>
        </mxCell>
        <mxCell id="McF7rYx9Hz_RNk4GY4Bs-240" value="session" style="text;html=1;align=center;verticalAlign=middle;resizable=0;points=[];autosize=1;strokeColor=none;fillColor=none;" vertex="1" parent="1">
          <mxGeometry x="240" y="20" width="60" height="30" as="geometry" />
        </mxCell>
        <mxCell id="McF7rYx9Hz_RNk4GY4Bs-241" value="" style="endArrow=classic;html=1;rounded=0;" edge="1" parent="1">
          <mxGeometry width="50" height="50" relative="1" as="geometry">
            <mxPoint x="30" y="290" as="sourcePoint" />
            <mxPoint x="30" y="210" as="targetPoint" />
          </mxGeometry>
        </mxCell>
        <mxCell id="McF7rYx9Hz_RNk4GY4Bs-242" value="" style="endArrow=none;html=1;rounded=0;" edge="1" parent="1">
          <mxGeometry width="50" height="50" relative="1" as="geometry">
            <mxPoint x="30" y="290" as="sourcePoint" />
            <mxPoint x="60" y="290" as="targetPoint" />
          </mxGeometry>
        </mxCell>
        <mxCell id="McF7rYx9Hz_RNk4GY4Bs-243" value="" style="endArrow=none;html=1;rounded=0;" edge="1" parent="1">
          <mxGeometry width="50" height="50" relative="1" as="geometry">
            <mxPoint x="60" y="340" as="sourcePoint" />
            <mxPoint x="60" y="290" as="targetPoint" />
          </mxGeometry>
        </mxCell>
        <mxCell id="McF7rYx9Hz_RNk4GY4Bs-244" value="credentials" style="text;html=1;align=center;verticalAlign=middle;resizable=0;points=[];autosize=1;strokeColor=none;fillColor=none;" vertex="1" parent="1">
          <mxGeometry x="-50" y="240" width="80" height="30" as="geometry" />
        </mxCell>
        <mxCell id="McF7rYx9Hz_RNk4GY4Bs-245" value="" style="endArrow=none;html=1;rounded=0;entryX=0.733;entryY=0.948;entryDx=0;entryDy=0;entryPerimeter=0;" edge="1" parent="1" target="McF7rYx9Hz_RNk4GY4Bs-233">
          <mxGeometry width="50" height="50" relative="1" as="geometry">
            <mxPoint x="50" y="270" as="sourcePoint" />
            <mxPoint x="100" y="220" as="targetPoint" />
          </mxGeometry>
        </mxCell>
        <mxCell id="McF7rYx9Hz_RNk4GY4Bs-246" value="" style="endArrow=none;html=1;rounded=0;" edge="1" parent="1">
          <mxGeometry width="50" height="50" relative="1" as="geometry">
            <mxPoint x="50" y="270" as="sourcePoint" />
            <mxPoint x="90" y="270" as="targetPoint" />
          </mxGeometry>
        </mxCell>
        <mxCell id="McF7rYx9Hz_RNk4GY4Bs-247" value="" style="endArrow=classic;html=1;rounded=0;entryX=0.667;entryY=0;entryDx=0;entryDy=0;entryPerimeter=0;" edge="1" parent="1" target="McF7rYx9Hz_RNk4GY4Bs-132">
          <mxGeometry width="50" height="50" relative="1" as="geometry">
            <mxPoint x="90" y="270" as="sourcePoint" />
            <mxPoint x="140" y="220" as="targetPoint" />
          </mxGeometry>
        </mxCell>
        <mxCell id="McF7rYx9Hz_RNk4GY4Bs-248" value="session" style="text;html=1;align=center;verticalAlign=middle;resizable=0;points=[];autosize=1;strokeColor=none;fillColor=none;" vertex="1" parent="1">
          <mxGeometry x="50" y="220" width="60" height="30" as="geometry" />
        </mxCell>
        <mxCell id="McF7rYx9Hz_RNk4GY4Bs-249" value="" style="endArrow=none;html=1;rounded=0;entryX=0.589;entryY=0.92;entryDx=0;entryDy=0;entryPerimeter=0;" edge="1" parent="1" target="McF7rYx9Hz_RNk4GY4Bs-135">
          <mxGeometry width="50" height="50" relative="1" as="geometry">
            <mxPoint x="540" y="792.05" as="sourcePoint" />
            <mxPoint x="540.02" y="630" as="targetPoint" />
          </mxGeometry>
        </mxCell>
        <mxCell id="McF7rYx9Hz_RNk4GY4Bs-250" value="" style="endArrow=none;html=1;rounded=0;" edge="1" parent="1">
          <mxGeometry width="50" height="50" relative="1" as="geometry">
            <mxPoint x="-102.3529411764706" y="790" as="sourcePoint" />
            <mxPoint x="540" y="790" as="targetPoint" />
          </mxGeometry>
        </mxCell>
        <mxCell id="McF7rYx9Hz_RNk4GY4Bs-251" value="" style="endArrow=none;html=1;rounded=0;" edge="1" parent="1">
          <mxGeometry width="50" height="50" relative="1" as="geometry">
            <mxPoint x="-100" y="790" as="sourcePoint" />
            <mxPoint x="-100" y="200" as="targetPoint" />
          </mxGeometry>
        </mxCell>
        <mxCell id="McF7rYx9Hz_RNk4GY4Bs-252" value="" style="endArrow=classic;html=1;rounded=0;entryX=0.165;entryY=0.872;entryDx=0;entryDy=0;entryPerimeter=0;" edge="1" parent="1" target="McF7rYx9Hz_RNk4GY4Bs-233">
          <mxGeometry width="50" height="50" relative="1" as="geometry">
            <mxPoint x="-100" y="200" as="sourcePoint" />
            <mxPoint y="200" as="targetPoint" />
          </mxGeometry>
        </mxCell>
        <mxCell id="McF7rYx9Hz_RNk4GY4Bs-253" value="" style="endArrow=none;html=1;rounded=0;entryX=0;entryY=0.5;entryDx=0;entryDy=0;" edge="1" parent="1" target="McF7rYx9Hz_RNk4GY4Bs-233">
          <mxGeometry width="50" height="50" relative="1" as="geometry">
            <mxPoint x="-130" y="170" as="sourcePoint" />
            <mxPoint x="-50" y="120" as="targetPoint" />
          </mxGeometry>
        </mxCell>
        <mxCell id="McF7rYx9Hz_RNk4GY4Bs-254" value="" style="endArrow=none;html=1;rounded=0;" edge="1" parent="1">
          <mxGeometry width="50" height="50" relative="1" as="geometry">
            <mxPoint x="-130" y="810" as="sourcePoint" />
            <mxPoint x="-130" y="170" as="targetPoint" />
          </mxGeometry>
        </mxCell>
        <mxCell id="McF7rYx9Hz_RNk4GY4Bs-255" value="" style="endArrow=none;html=1;rounded=0;" edge="1" parent="1">
          <mxGeometry width="50" height="50" relative="1" as="geometry">
            <mxPoint x="-130" y="810" as="sourcePoint" />
            <mxPoint x="550" y="810" as="targetPoint" />
          </mxGeometry>
        </mxCell>
        <mxCell id="McF7rYx9Hz_RNk4GY4Bs-256" value="" style="endArrow=classic;html=1;rounded=0;entryX=0.756;entryY=0.932;entryDx=0;entryDy=0;entryPerimeter=0;" edge="1" parent="1" target="McF7rYx9Hz_RNk4GY4Bs-135">
          <mxGeometry width="50" height="50" relative="1" as="geometry">
            <mxPoint x="550" y="810" as="sourcePoint" />
            <mxPoint x="600" y="760" as="targetPoint" />
          </mxGeometry>
        </mxCell>
        <mxCell id="McF7rYx9Hz_RNk4GY4Bs-257" value="credentials" style="text;html=1;align=center;verticalAlign=middle;resizable=0;points=[];autosize=1;strokeColor=none;fillColor=none;" vertex="1" parent="1">
          <mxGeometry x="-100" y="350" width="80" height="30" as="geometry" />
        </mxCell>
        <mxCell id="McF7rYx9Hz_RNk4GY4Bs-258" value="session" style="text;html=1;align=center;verticalAlign=middle;resizable=0;points=[];autosize=1;strokeColor=none;fillColor=none;" vertex="1" parent="1">
          <mxGeometry x="-190" y="260" width="60" height="30" as="geometry" />
        </mxCell>
        <mxCell id="lH9-CxYpWuOLmKfijzjf-1" value="" style="endArrow=none;html=1;rounded=0;" edge="1" parent="1">
          <mxGeometry width="50" height="50" relative="1" as="geometry">
            <mxPoint x="860" as="sourcePoint" />
            <mxPoint x="1000" as="targetPoint" />
          </mxGeometry>
        </mxCell>
        <mxCell id="lH9-CxYpWuOLmKfijzjf-2" value="" style="endArrow=none;html=1;rounded=0;" edge="1" parent="1">
          <mxGeometry width="50" height="50" relative="1" as="geometry">
            <mxPoint x="860" y="29.999999999999996" as="sourcePoint" />
            <mxPoint x="1000" y="29.999999999999996" as="targetPoint" />
          </mxGeometry>
        </mxCell>
        <mxCell id="lH9-CxYpWuOLmKfijzjf-3" value="Report db" style="text;html=1;align=center;verticalAlign=middle;whiteSpace=wrap;rounded=0;" vertex="1" parent="1">
          <mxGeometry x="895" width="60" height="30" as="geometry" />
        </mxCell>
        <mxCell id="lH9-CxYpWuOLmKfijzjf-6" value="" style="endArrow=none;html=1;rounded=0;" edge="1" parent="1">
          <mxGeometry width="50" height="50" relative="1" as="geometry">
            <mxPoint x="930" y="200" as="sourcePoint" />
            <mxPoint x="930" y="30" as="targetPoint" />
          </mxGeometry>
        </mxCell>
        <mxCell id="lH9-CxYpWuOLmKfijzjf-7" value="" style="endArrow=classic;html=1;rounded=0;entryX=1;entryY=0.5;entryDx=0;entryDy=0;" edge="1" parent="1" target="McF7rYx9Hz_RNk4GY4Bs-203">
          <mxGeometry width="50" height="50" relative="1" as="geometry">
            <mxPoint x="930" y="200" as="sourcePoint" />
            <mxPoint x="980" y="140" as="targetPoint" />
          </mxGeometry>
        </mxCell>
        <mxCell id="lH9-CxYpWuOLmKfijzjf-8" value="Queried Reports" style="text;html=1;align=center;verticalAlign=middle;whiteSpace=wrap;rounded=0;" vertex="1" parent="1">
          <mxGeometry x="930" y="110" width="60" height="30" as="geometry" />
        </mxCell>
        <mxCell id="lH9-CxYpWuOLmKfijzjf-9" value="" style="endArrow=none;html=1;rounded=0;exitX=0.982;exitY=0.375;exitDx=0;exitDy=0;exitPerimeter=0;" edge="1" parent="1" source="McF7rYx9Hz_RNk4GY4Bs-203">
          <mxGeometry width="50" height="50" relative="1" as="geometry">
            <mxPoint x="660" y="190" as="sourcePoint" />
            <mxPoint x="920" y="190" as="targetPoint" />
          </mxGeometry>
        </mxCell>
        <mxCell id="lH9-CxYpWuOLmKfijzjf-10" value="" style="endArrow=classic;html=1;rounded=0;entryX=0.417;entryY=0.967;entryDx=0;entryDy=0;entryPerimeter=0;" edge="1" parent="1" target="lH9-CxYpWuOLmKfijzjf-3">
          <mxGeometry width="50" height="50" relative="1" as="geometry">
            <mxPoint x="920" y="190" as="sourcePoint" />
            <mxPoint x="970" y="140" as="targetPoint" />
          </mxGeometry>
        </mxCell>
        <mxCell id="lH9-CxYpWuOLmKfijzjf-12" value="Admin Reports" style="text;html=1;align=center;verticalAlign=middle;whiteSpace=wrap;rounded=0;" vertex="1" parent="1">
          <mxGeometry x="860" y="50" width="60" height="30" as="geometry" />
        </mxCell>
        <mxCell id="lH9-CxYpWuOLmKfijzjf-13" value="Event Registered Details" style="text;html=1;align=center;verticalAlign=middle;whiteSpace=wrap;rounded=0;" vertex="1" parent="1">
          <mxGeometry x="720" y="300" width="60" height="30" as="geometry" />
        </mxCell>
        <mxCell id="lH9-CxYpWuOLmKfijzjf-14" value="Event Registered Details" style="text;html=1;align=center;verticalAlign=middle;whiteSpace=wrap;rounded=0;" vertex="1" parent="1">
          <mxGeometry x="955" y="210" width="60" height="30" as="geometry" />
        </mxCell>
        <mxCell id="lH9-CxYpWuOLmKfijzjf-15" value="&lt;div&gt;User Details&lt;/div&gt;" style="text;html=1;align=center;verticalAlign=middle;whiteSpace=wrap;rounded=0;" vertex="1" parent="1">
          <mxGeometry x="460" y="200" width="60" height="30" as="geometry" />
        </mxCell>
      </root>
    </mxGraphModel>
  </diagram>
</mxfile>
